<?xml version="1.0" standalone="no"?>
<!DOCTYPE svg PUBLIC "-//W3C//DTD SVG 20010904//EN"
 "http://www.w3.org/TR/2001/REC-SVG-20010904/DTD/svg10.dtd">
<svg version="1.0" xmlns="http://www.w3.org/2000/svg"
 width="512.000000pt" height="512.000000pt" viewBox="0 0 512.000000 512.000000"
 preserveAspectRatio="xMidYMid meet">
<metadata>
Created by potrace 1.14, written by Peter Selinger 2001-2017
</metadata>
<g transform="translate(0.000000,512.000000) scale(0.100000,-0.100000)"
fill="#000000" stroke="none">
<path d="M3098 4515 c-2 -1 -66 -6 -143 -9 -77 -4 -160 -9 -185 -11 -25 -3
-70 -7 -100 -10 -147 -14 -186 -18 -238 -29 l-57 -11 0 -330 c1 -307 4 -488
22 -1050 4 -121 7 -377 8 -570 0 -314 -2 -355 -18 -395 -47 -119 -120 -170
-241 -170 -121 0 -212 34 -362 131 -92 60 -102 59 -157 -23 -116 -175 -336
-704 -354 -850 -6 -47 -5 -48 58 -120 70 -81 159 -168 171 -168 4 0 25 -15 45
-33 142 -125 374 -224 618 -263 17 -2 39 -6 50 -9 120 -25 537 -25 659 1 12 3
44 9 71 14 139 28 287 89 413 174 224 149 384 400 456 716 14 61 18 85 32 187
12 97 14 166 13 553 0 900 -19 1741 -44 1956 l-7 62 -129 128 -129 129 -225 1
c-123 1 -225 1 -227 -1z m396 -105 c5 -5 14 -169 21 -375 18 -517 27 -1953 13
-2093 -32 -311 -145 -573 -322 -747 -203 -200 -477 -297 -846 -299 -320 -1
-544 38 -749 131 -134 61 -231 132 -231 169 0 72 255 679 322 768 14 17 17 16
73 -19 132 -85 263 -125 389 -119 91 4 159 30 218 83 97 87 130 193 131 426 1
145 -10 716 -18 925 -6 173 -18 691 -20 892 l-2 207 46 6 c89 11 117 14 201
20 47 4 99 8 115 10 17 2 107 7 200 11 94 4 171 7 172 9 6 4 282 0 287 -5z
m167 -147 c55 -57 56 -61 64 -188 23 -412 48 -2157 31 -2280 -2 -16 -7 -61
-11 -100 -8 -82 -45 -245 -75 -330 -29 -79 -100 -225 -120 -245 -3 -3 -18 -24
-34 -48 -43 -62 -166 -174 -249 -226 -108 -67 -272 -127 -408 -150 -186 -31
-484 -27 -686 8 -183 33 -389 107 -468 170 -19 15 -18 16 10 5 66 -25 253 -61
385 -75 96 -10 364 -11 445 -2 455 54 760 251 939 606 68 136 128 352 142 511
3 36 7 80 10 96 16 109 -8 1890 -30 2253 -1 23 0 42 3 42 4 0 27 -21 52 -47z"/>
</g>
</svg>
